<?xml version="1.0" encoding="utf-8"?>
<!-- Generator: Adobe Illustrator 25.0.0, SVG Export Plug-In . SVG Version: 6.00 Build 0)  -->
<svg version="1.1" xmlns="http://www.w3.org/2000/svg" xmlns:xlink="http://www.w3.org/1999/xlink" x="0px" y="0px"
	 viewBox="0 0 792 2092.15" style="enable-background:new 0 0 792 2092.15;" xml:space="preserve">
<style type="text/css">
	.st0{fill:#0F0F0F;}
	.st1{fill:url(#SVGID_1_);}
	.st2{fill:url(#SVGID_2_);}
	.st3{fill:#3F3F3F;stroke:#191919;stroke-miterlimit:10;}
	.st4{fill:#FCEF6E;}
	.st5{opacity:0.51;fill:url(#SVGID_3_);}
	.st6{fill:#545454;}
	.st7{fill:#3F3F3F;}
	.st8{fill:#1C1C1C;}
	.st9{fill:#FFFFFF;}
	.st10{opacity:0.44;fill:#FCEF6E;}
	.st11{opacity:0.65;fill:#02141E;}
	.st12{fill:none;stroke:#030E16;stroke-linecap:round;stroke-linejoin:round;stroke-miterlimit:10;}
	.st13{fill:none;stroke:#000000;stroke-width:3;stroke-linecap:round;stroke-linejoin:round;stroke-miterlimit:10;}
	.st14{fill:#393F16;stroke:#042605;stroke-miterlimit:10;}
	.st15{fill:#042605;stroke:#393F16;stroke-miterlimit:10;}
	.st16{opacity:0.56;}
	.st17{display:none;}
	.st18{display:inline;}
	.st19{fill:none;stroke:#00A551;stroke-width:0.1;}
</style>
<g id="Layer_31">
	<rect x="-45.07" y="-28.76" class="st0" width="911.95" height="2142.68"/>
	<g>
		
			<linearGradient id="SVGID_1_" gradientUnits="userSpaceOnUse" x1="-2541.0627" y1="524.867" x2="-2541.0627" y2="-1289.7965" gradientTransform="matrix(-1 0 0 -1 -2144.5601 1491)">
			<stop  offset="0" style="stop-color:#1C1C1C"/>
			<stop  offset="0.0292" style="stop-color:#21201E;stop-opacity:0.9759"/>
			<stop  offset="0.0616" style="stop-color:#2E2D23;stop-opacity:0.9493"/>
			<stop  offset="0.0954" style="stop-color:#44422B;stop-opacity:0.9215"/>
			<stop  offset="0.1302" style="stop-color:#635F36;stop-opacity:0.8928"/>
			<stop  offset="0.1659" style="stop-color:#8B8445;stop-opacity:0.8635"/>
			<stop  offset="0.2022" style="stop-color:#BCB256;stop-opacity:0.8336"/>
			<stop  offset="0.2384" style="stop-color:#F4E86B;stop-opacity:0.8038"/>
			<stop  offset="0.243" style="stop-color:#FCEF6E;stop-opacity:0.8"/>
			<stop  offset="0.2736" style="stop-color:#D5D470;stop-opacity:0.8224"/>
			<stop  offset="0.3153" style="stop-color:#A8B573;stop-opacity:0.8528"/>
			<stop  offset="0.3572" style="stop-color:#829B75;stop-opacity:0.8834"/>
			<stop  offset="0.3985" style="stop-color:#648677;stop-opacity:0.9136"/>
			<stop  offset="0.4392" style="stop-color:#4F7878;stop-opacity:0.9434"/>
			<stop  offset="0.479" style="stop-color:#426F79;stop-opacity:0.9724"/>
			<stop  offset="0.5168" style="stop-color:#3E6C79"/>
			<stop  offset="0.5195" style="stop-color:#3D6A78"/>
			<stop  offset="0.554" style="stop-color:#324F72"/>
			<stop  offset="0.5932" style="stop-color:#2A396D"/>
			<stop  offset="0.6394" style="stop-color:#232869"/>
			<stop  offset="0.6967" style="stop-color:#1E1D66"/>
			<stop  offset="0.777" style="stop-color:#1C1664"/>
			<stop  offset="1" style="stop-color:#1B1464"/>
		</linearGradient>
		<polygon class="st1" points="15.04,957.39 777.96,957.39 777.96,2100.72 15.04,2100.72 		"/>
		<linearGradient id="SVGID_2_" gradientUnits="userSpaceOnUse" x1="396.4947" y1="781.936" x2="396.4947" y2="-451.07">
			<stop  offset="0" style="stop-color:#FCEF6E"/>
			<stop  offset="0.1885" style="stop-color:#FE914A"/>
			<stop  offset="0.2881" style="stop-color:#FF6439"/>
			<stop  offset="0.319" style="stop-color:#F7643C"/>
			<stop  offset="0.3667" style="stop-color:#E16543"/>
			<stop  offset="0.4253" style="stop-color:#BE674F"/>
			<stop  offset="0.4926" style="stop-color:#8C695F"/>
			<stop  offset="0.5662" style="stop-color:#4E6B74"/>
			<stop  offset="0.5838" style="stop-color:#3E6C79"/>
		</linearGradient>
		<rect x="15.03" y="11.02" class="st2" width="762.94" height="776.86"/>
	</g>
	<path class="st3" d="M771.23,1831.97c0,0,2.88,41.93-20.64,37.13"/>
	<ellipse class="st4" cx="204.08" cy="630.48" rx="122.24" ry="119.41"/>
	<linearGradient id="SVGID_3_" gradientUnits="userSpaceOnUse" x1="382.9607" y1="1011.1536" x2="382.9607" y2="1232.1696">
		<stop  offset="0" style="stop-color:#1C1C1C;stop-opacity:0.5"/>
		<stop  offset="0.1779" style="stop-color:#1F1F1F;stop-opacity:0.4111"/>
		<stop  offset="0.3155" style="stop-color:#292929;stop-opacity:0.3423"/>
		<stop  offset="0.4396" style="stop-color:#393939;stop-opacity:0.2802"/>
		<stop  offset="0.5558" style="stop-color:#515151;stop-opacity:0.2221"/>
		<stop  offset="0.6665" style="stop-color:#6F6F6F;stop-opacity:0.1668"/>
		<stop  offset="0.773" style="stop-color:#949494;stop-opacity:0.1135"/>
		<stop  offset="0.8762" style="stop-color:#BFBFBF;stop-opacity:0.0619"/>
		<stop  offset="0.9743" style="stop-color:#F1F1F1;stop-opacity:0.0129"/>
		<stop  offset="1" style="stop-color:#FFFFFF;stop-opacity:0"/>
	</linearGradient>
	<path class="st5" d="M-10.95,1106.49c0,0,51.14,104.99,107.47,11.78l25.71-38.53l33.6,42.24c0,0,11.72,9.85,23.91-0.66l34.56-43.74
		l61.32,87.51c0,0,36.93,51.58,81.66,0l57.9-82.62l17.36,52.47c0,0,20.58,53.36,66.61,22.3l65.25-54.69l29.41,75.44
		c0,0,21.7,48.98,67.62,17.95l34.81-32.83c0,0,37.98,9.71,52.42-30.19l7.04-21.28l22.56-13.52l-3.15-270.04l-787.42-11.98
		L-10.95,1106.49z"/>
	<g>
		<path class="st6" d="M175.52,624.17l-60.84,69.97c-10.25,11.79-1.88,30.16,13.74,30.16h121.69c15.62,0,23.99-18.38,13.74-30.16
			l-60.84-69.97C195.75,615.82,182.78,615.82,175.52,624.17z"/>
		<path class="st6" d="M40.59,609.69L-98,796.82c-21.69,29.28-0.78,70.77,35.65,70.77h277.18c36.44,0,57.34-41.49,35.65-70.77
			L111.9,609.69C94.16,585.74,58.33,585.74,40.59,609.69z"/>
		<path class="st7" d="M588.53,574.16L502.8,772.21c-13.57,31.35-5.33,55.82,46.55,57.2l260.54,14.93
			c32.72-7.82,30.88-124.81,5.06-146.75l-163.1-138.57C631.05,541.36,599.46,548.91,588.53,574.16z"/>
		<path class="st7" d="M289.92,585.9L132.65,788.04c-25.19,32.37-2.12,79.55,38.9,79.55h314.54c41.02,0,64.08-47.18,38.9-79.55
			L367.72,585.9C347.98,560.53,309.65,560.53,289.92,585.9z"/>
		<path class="st7" d="M178.12,677.64l-35.87,97.67c-5.63,15.32,8.67,30.49,24.29,25.77l118.06-35.61
			c15.51-4.68,19.14-24.99,6.21-34.74l-82.2-62.05C198.02,660.66,182.7,665.17,178.12,677.64z"/>
		<path class="st7" d="M137.38,745.71l-35.83,97.57c-5.67,15.44-1.05,26.97,23.91,26.18l125.58-0.16
			c15.51-4.68,11.46-60.84-1.54-70.65l-82.11-61.99C156.93,728.75,141.95,733.27,137.38,745.71z"/>
		<path class="st7" d="M437.52,610.47L363.06,813.2c-11.79,32.09-2.19,56.04,49.69,54.39l260.95-0.32
			c32.22-9.72,23.81-126.41-3.2-146.8L499.88,591.66C478.13,575.24,447.01,584.62,437.52,610.47z"/>
		<path class="st8" d="M733.53,612.18l74.45,202.73c11.79,32.09,2.19,56.04-49.69,54.39l-260.95-0.32
			c-32.22-9.72-23.81-126.41,3.2-146.8l170.62-128.81C692.92,576.94,724.04,586.33,733.53,612.18z"/>
		<path class="st8" d="M420.62,721.74l-85.39,109.17c-0.54,4.27-16.08,37.94,24.55,38.39l210.12-0.69
			c26.42-4.49,35.63-68.66,17.35-80.54l-115.5-75.02C457.02,703.48,431.51,707.82,420.62,721.74z"/>
		<path class="st7" d="M60.79,759.19l-119.93,51.87c-28.49,12.32-19.69,54.83,11.35,54.83h239.87c31.04,0,39.83-42.51,11.35-54.83
			L83.48,759.19C76.24,756.06,68.03,756.06,60.79,759.19z"/>
		<path class="st8" d="M286.87,764.31l-119.93,51.87C138.45,828.5,147.25,871,178.29,871h239.87c31.04,0,39.83-42.51,11.35-54.83
			l-119.93-51.87C302.33,761.18,294.11,761.18,286.87,764.31z"/>
		<path class="st8" d="M158.09,770.88l-60.84,69.97C87,852.63,95.37,871,110.99,871h121.69c15.62,0,23.99-18.38,13.74-30.16
			l-60.84-69.97C178.32,762.53,165.35,762.53,158.09,770.88z"/>
		<path class="st8" d="M89.07,766.58l-30.01,66.95c-3.67,8.2,2.32,17.46,11.31,17.46h60.02c8.98,0,14.98-9.26,11.31-17.46
			l-30.01-66.95C107.31,756.82,93.45,756.82,89.07,766.58z"/>
		<path class="st8" d="M711.63,632.37l-23.06,82.01c-3.65,12.98,0.89,13.34,19.54,13.28l93.35,12.5
			c11.43-3.59,6.23-51.41-3.87-60.06l-63.84-54.69C725.61,618.44,714.57,621.91,711.63,632.37z"/>
		<path class="st8" d="M39.73,809.96l-28.88,52.82c-4.57,8.36-0.5,8.19,16.38,6.52l83.23-0.41c10.69-3.22,10.66-32.39,2.37-36.87
			l-52.41-28.3C53.73,800.11,43.41,803.22,39.73,809.96z"/>
		<ellipse class="st9" cx="-17.37" cy="742.88" rx="5.05" ry="5.15"/>
	</g>
	<path class="st10" d="M278.8,1171.24c-22.35,27.25-53.97,44.25-89.03,44.25c-45.99,0-86.07-29.25-107.05-72.52
		c-0.45-0.92,2.51-2.53,5.56-7.54c7.36-12.07,26.25-40.14,35.57-54.39c0,0,30.41,47.43,43.53,47.48
		c17.91,0.07,30.17-30.83,48.18-49.67c0.04-0.04,2.55,3.72,2.98,4.34c14.4,20.96,36.56,58.24,51.06,74.31
		C270.67,1158.7,279.63,1170.23,278.8,1171.24z"/>
	<rect x="10.85" y="862.78" class="st8" width="778.4" height="123.06"/>
	<g>
		<ellipse class="st11" cx="519.9" cy="1410.14" rx="14.85" ry="5.46"/>
		<path class="st12" d="M429.99,1369.54c0,0-23.97,11.26,4.9,18.42c23.4,5.81,32.86,4.26,32.86,4.26"/>
		<path class="st12" d="M444.2,1401.73c0,0,16.91,9.45,49.25,6.3"/>
		<path class="st12" d="M540.65,1413.43c0,0,71.39,3.55,89.3-5.22"/>
		<path class="st12" d="M511.07,1419.24c0,0,11.65,5.13,17.33,1.52"/>
		<path class="st12" d="M656.36,1369.54c0,0,23.97,11.26-4.9,18.42c-23.4,5.81-32.86,4.26-32.86,4.26"/>
		<path class="st12" d="M513.51,1400.54c0,0-12.67,0.89-16.09,6.75"/>
		<ellipse cx="542.47" cy="1360.07" rx="10.04" ry="16.68"/>
		<ellipse cx="544.81" cy="1340.43" rx="8.53" ry="8.7"/>
		<ellipse class="st11" cx="542.84" cy="1378.08" rx="112.85" ry="9.35"/>
		<path d="M627.23,1379.44H460.6c-2.55,0-4.63-2.53-4.63-5.62v-6.24c0-3.09,0-5.35,0-12.63l2.81,0.96
			c55.7,9.27,112.55,9.27,169.59,0.17l3.5-1.14c0,5.23,0,9.54,0,12.63v6.24C631.86,1376.91,629.78,1379.44,627.23,1379.44z"/>
		<path d="M580.26,1327.17L580.26,1327.17c-2.27-1.76-2.71-5.1-0.98-7.41l3.04-4.07c1.73-2.31,5-2.77,7.27-1l0,0
			c2.27,1.76,2.71,5.1,0.98,7.41l-3.04,4.07C585.8,1328.48,582.53,1328.93,580.26,1327.17z"/>
		<path d="M517.73,1410.92L517.73,1410.92c-2.27-1.76-2.71-5.1-0.98-7.41l3.04-4.07c1.73-2.31,5-2.77,7.27-1h0
			c2.27,1.76,2.71,5.1,0.98,7.41l-3.04,4.07C523.27,1412.23,520,1412.68,517.73,1410.92z"/>
		<line class="st13" x1="523.28" y1="1403.48" x2="583.41" y2="1322.94"/>
	</g>
	<g>
		<path class="st14" d="M713.27,1889.49c0,0,21.64-150.46,21.64-202.39c0,0-2.31,172.56-10.82,196.1L713.27,1889.49z"/>
		<path class="st14" d="M744.05,1879.7c0,0-21.64-175.32-21.64-235.84c0,0,2.31,201.07,10.82,228.5L744.05,1879.7z"/>
		<path class="st15" d="M726.67,1864.96c0,0,30.08-150.46,30.08-202.39c0,0-3.21,172.56-15.04,196.1L726.67,1864.96z"/>
		<path class="st15" d="M729.46,1874.89c0,0-30.08-96.28-30.08-129.51c0,0,3.21,110.42,15.04,125.48L729.46,1874.89z"/>
		<path class="st14" d="M783.37,1883.51c0,0-21.64-150.46-21.64-202.39c0,0,2.31,172.56,10.82,196.1L783.37,1883.51z"/>
		<path class="st14" d="M759.63,1846.41c0,0,21.64-150.46,21.64-202.39c0,0-2.31,172.56-10.82,196.1L759.63,1846.41z"/>
		<path class="st15" d="M762.62,1854.05c0,0,30.08-150.46,30.08-202.39c0,0-3.21,172.56-15.04,196.1L762.62,1854.05z"/>
		<ellipse class="st16" cx="747.22" cy="1893.24" rx="74.37" ry="9.3"/>
		<path class="st3" d="M779.35,1825.04c0,0-24.66-17.43-48.37,22.66c0,0-3.32,4.14-9.01,2.18c-5.69-1.96-48.84,22-43.15,27.67
			s18.02,16.99,35.8,17.65c17.78,0.65,59.04,6.32,70.65-3.7S779.35,1825.04,779.35,1825.04z"/>
	</g>
	<g>
		<ellipse class="st16" cx="599.71" cy="1952.52" rx="78.64" ry="8.17"/>
		<g>
			<path class="st3" d="M584.54,1913.31c0,0-26.76-15.01-37.47,20.47c0,0-37.8,12.62-11.71,17.4c26.1,4.78,47.17-3.07,60.55-3.41
				c13.38-0.34,54.87,8.53,59.89,3.41c5.02-5.12,10.04-16.91,8.03-19.71c-2.01-2.8,0.45-7.24,0.45-7.24s1.55-4.78,2.56-8.53
				c1-3.75,2.34-22.18-12.38-17.74c-14.72,4.44-23.08,12.62-35.46,12.62S604.61,1901.71,584.54,1913.31z"/>
			<path class="st3" d="M584.54,1913.31c0,0-16.73,9.55-14.39,18.42c2.34,8.87-0.28,9.89-0.28,9.89s-7.4,10.71-9.75,10.84"/>
		</g>
	</g>
	<g>
		<ellipse class="st16" cx="709.16" cy="1934.24" rx="22.51" ry="6.71"/>
		<ellipse class="st16" cx="712.61" cy="1957.53" rx="25.96" ry="4.75"/>
		<path class="st3" d="M708.29,1938.45c0,0-44.6-1.26-0.87-20.19c0,0,0.19-3.6,1.94-5.04s5.64-1.62,5.64-1.62l1.46,4.86l1.26,6.49
			C717.71,1922.95,724.32,1936.12,708.29,1938.45z"/>
		<ellipse class="st3" cx="703.63" cy="1952.28" rx="15.43" ry="4.78"/>
		<ellipse class="st3" cx="713.48" cy="1947.5" rx="15.43" ry="4.78"/>
	</g>
	<path class="st3" d="M301.76,1830.15c0,0,82.63,43.79,88.19,49.94"/>
	<g>
		<g>
			<path class="st3" d="M649.09,2009.09c0,0-50.89-20-83.1-3.18S647.42,2028.97,649.09,2009.09z"/>
			<path class="st3" d="M518.19,2035.78c0,0-40.11,30.11-12.25,34.08s103.05,21.02,128.12,9.66c25.07-11.36,45.12-25.56,41.78-38.06
				c-3.34-12.5-12.25-37.49-38.99-27.83c-26.74,9.66-81.33-11.36-81.33-11.36s-37.32,7.38-37.32,20.45
				S518.19,2035.78,518.19,2035.78z"/>
		</g>
		<path class="st14" d="M638.28,2144.02c0,0,25.47-150.46,25.47-202.39c0,0-2.72,172.56-12.73,196.1L638.28,2144.02z"/>
		<path class="st15" d="M487.65,2097.32c0,0,30.08-164.73,30.08-221.59c0,0-3.21,188.92-15.04,214.69L487.65,2097.32z"/>
		<path class="st14" d="M501.52,2103.67c0,0-32.13-237.98-32.13-320.13c0,0,3.43,272.94,16.06,310.17L501.52,2103.67z"/>
		<path class="st14" d="M670.73,2092.45c0,0-21.64-150.46-21.64-202.39c0,0,2.31,172.56,10.82,196.1L670.73,2092.45z"/>
		<path class="st14" d="M665.41,2088.68c0,0-48.58-48.43-48.58-65.14c0,0,5.18,55.54,24.29,63.11L665.41,2088.68z"/>
		<path class="st15" d="M655.69,2092.2c0,0,30.08-150.46,30.08-202.39c0,0-3.21,172.56-15.04,196.1L655.69,2092.2z"/>
		<path class="st14" d="M495.77,2097.32c0,0-59.61-195.39-59.61-262.83c0,0,6.35,224.08,29.8,254.65L495.77,2097.32z"/>
	</g>
	<rect x="16.48" y="1986.74" class="st7" width="7.79" height="77.98"/>
	<g>
		<path class="st3" d="M2.29,1992.07c-2.2,2.89-47.26,38.22-51.19,38.22s-9.45,15.47,18.9,31.85c0,0-0.79,20.02,14.96,20.93
			c15.75,0.91,84.27-1.82,84.27-7.28c0-5.46-23.33-80.87-23.33-80.87S13.78,1976.95,2.29,1992.07z"/>
		<path class="st3" d="M26.14,1987.25c0,0,62.74,12.78,63.53,15.97c0.79,3.19,47.26,33.54,51.19,33.54s9.45,13.58-18.9,27.95
			c0,0,0.79,17.57-14.96,18.37s-84.27-1.6-84.27-6.39s-3.15-89.45-3.15-89.45H26.14z"/>
		<path class="st3" d="M105.43,2035.24c0,0-61.73,19.19-84.82-19.99"/>
		<path class="st15" d="M40.61,2117.88c0,0-30.21-150.26-30.21-202.12c0,0,3.22,172.33,15.1,195.84L40.61,2117.88z"/>
		<path class="st14" d="M7.27,2109.15c0,0,21.73-150.26,21.73-202.12c0,0-2.32,172.33-10.87,195.84L7.27,2109.15z"/>
		<path class="st14" d="M19.85,2131.05c0,0,21.73-150.26,21.73-202.12c0,0-2.32,172.33-10.87,195.84L19.85,2131.05z"/>
		<path class="st15" d="M28.87,2123.74c0,0,30.21-150.26,30.21-202.12c0,0-3.22,172.33-15.1,195.84L28.87,2123.74z"/>
		<path class="st14" d="M24.02,2100.72c0,0-21.73-92.25-21.73-124.1c0,0,2.32,105.8,10.87,120.24L24.02,2100.72z"/>
	</g>
	<ellipse class="st16" cx="373.43" cy="1866.54" rx="44.75" ry="5.71"/>
	<g>
		<ellipse class="st16" cx="274.59" cy="1947.75" rx="158.39" ry="9.3"/>
		<path class="st3" d="M228.59,1808.29c0,0,22.54-35.46,84.06-20.65c61.52,14.81,68.78,50.65,72.6,52.99
			c3.82,2.34,22.93,12.47,25.6,24.16l-41.65,1.95C369.2,1866.74,297.37,1822.32,228.59,1808.29z"/>
		<g>
			<path class="st3" d="M123.97,1838.87c0,0-27.32,24.55-16.81,37.6c0,0-19.49,27.47-0.76,39.16
				c18.72,11.69,10.32,29.61,81.39,34.29c71.07,4.68,212.44,14.03,238.42-18.7c0,0,0.67-8.47,2.67-10.52s4.87-15.49-27.22-33.61
				c-32.1-18.12-111.47-76.86-179.68-78.61C221.98,1808.48,177.27,1790.94,123.97,1838.87z"/>
			<path class="st3" d="M118.81,1858.16c0,0-18.91,19.29,20.06,26.3s130.67,15.2,130.67,15.2"/>
			<path class="st3" d="M422.57,1920.7c0,0-50.44,18.7-89.41,20.46s-38.97,1.75-38.97,1.75"/>
			<path class="st3" d="M106.4,1915.63c0,0,25.6,21.43,69.73,18.51"/>
			<path class="st3" d="M125.69,1904.33c0,0,20.06,22.79,66.2,23.38"/>
		</g>
		<path class="st15" d="M313.78,1913.43c0,0,30.08-150.46,30.08-202.39c0,0-3.21,172.56-15.04,196.1L313.78,1913.43z"/>
		<path class="st14" d="M373.43,1926.58c0,0-21.64-150.46-21.64-202.39c0,0,2.31,172.56,10.82,196.1L373.43,1926.58z"/>
		<path class="st14" d="M366.06,1920.97c0,0-15.97-111.09-15.97-149.43c0,0,1.7,127.4,7.99,144.78L366.06,1920.97z"/>
		<path class="st14" d="M357.72,1912.21c0,0,21.64-90.61,21.64-121.89c0,0-2.31,103.92-10.82,118.09L357.72,1912.21z"/>
		<path class="st15" d="M344.83,1902.59c0,0-30.08-150.46-30.08-202.39c0,0,3.21,172.56,15.04,196.1L344.83,1902.59z"/>
		<path class="st14" d="M335.04,1858.15c0,0-31.76-53.33-27.1-65.53c0,0-10.66,42.45,5.03,55.06L335.04,1858.15z"/>
		<path class="st14" d="M358.55,1912.21c0,0-21.64-120.54-21.64-162.14c0,0,2.31,138.24,10.82,157.1L358.55,1912.21z"/>
		<path class="st15" d="M343.24,1882.08c0,0,31.76-53.33,27.1-65.53c0,0,10.66,42.45-5.03,55.06L343.24,1882.08z"/>
		<path class="st7" d="M301.76,1830.8c0,0,64.16,31.53,83.65,47.28c19.5,15.75-10.98,54.53-10.98,54.53s-77.53,7.96-77.53-27.47
			S301.76,1830.8,301.76,1830.8z"/>
	</g>
	<g>
		<path class="st14" d="M203.09,2092.82c0,0,28.17-163.02,28.17-219.28c0,0-3,186.96-14.09,212.46L203.09,2092.82z"/>
		<path class="st14" d="M219.41,2097.86c0,0,28.17-150.46,28.17-202.39c0,0-3,172.56-14.09,196.1L219.41,2097.86z"/>
		<path class="st15" d="M178.8,2095.1c0,0,39.17-162.53,39.17-218.62c0,0-4.18,186.39-19.58,211.82L178.8,2095.1z"/>
		<path class="st14" d="M213.46,2104.41c0,0-41.83-237.98-41.83-320.13c0,0,4.46,272.94,20.92,310.17L213.46,2104.41z"/>
	</g>
</g>
<g id="water">
</g>
<g id="Layer_59">
</g>
<g id="sun">
</g>
<g id="shadow">
</g>
<g id="b_19">
</g>
<g id="b20">
</g>
<g id="b21">
</g>
<g id="b22">
</g>
<g id="b23">
</g>
<g id="b24">
</g>
<g id="b">
</g>
<g id="grassB">
</g>
<g id="mount_1_">
</g>
<g id="S26">
</g>
<g id="S27">
</g>
<g id="S28">
</g>
<g id="S29">
</g>
<g id="S30">
</g>
<g id="S33">
</g>
<g id="S_34">
</g>
<g id="info">
	<g id="Layer_32">
		<rect x="778.68" y="640.49" class="st0" width="77.42" height="405.42"/>
		<rect x="-46.88" y="608.42" class="st0" width="60.92" height="600.26"/>
		
			<rect x="356.16" y="1694" transform="matrix(6.123234e-17 -1 1 6.123234e-17 -1713.9185 2497.7585)" class="st0" width="71.52" height="823.68"/>
	</g>
	<g id="acadia">
	</g>
	<g id="maine">
	</g>
</g>
<g id="dude">
</g>
<g id="boatS">
</g>
<g id="boat">
</g>
<g id="stickC">
</g>
<g id="stckC">
</g>
<g id="stick">
</g>
<g id="rocks_2_">
</g>
<g id="G">
</g>
<g id="G37">
</g>
<g id="G38">
</g>
<g id="G39">
</g>
<g id="G40">
</g>
<g id="G41">
</g>
<g id="G_1_">
</g>
<g id="G43">
</g>
<g id="pat">
</g>
<g id="G44">
</g>
<g id="G45">
</g>
<g id="G46">
</g>
<g id="G47">
</g>
<g id="G48">
</g>
<g id="G49">
</g>
<g id="G50">
</g>
<g id="G51">
</g>
<g id="G52">
</g>
<g id="G53">
</g>
<g id="G54">
</g>
<g id="G55">
</g>
<g id="G56">
</g>
<g id="G57">
</g>
<g id="G58">
</g>
<g id="G59">
</g>
<g id="G60">
</g>
<g id="back" class="st17">
	<g class="st18">
		<line class="st19" x1="-483.68" y1="-100" x2="-483.68" y2="1324"/>
		<line class="st19" x1="-540.68" y1="-100" x2="-540.68" y2="1324"/>
		<line class="st19" x1="-547.88" y1="-100" x2="-547.88" y2="1324"/>
		<line class="st19" x1="-604.88" y1="-100" x2="-604.88" y2="1324"/>
		<line class="st19" x1="-612.08" y1="-100" x2="-612.08" y2="1324"/>
		<line class="st19" x1="-669.08" y1="-100" x2="-669.08" y2="1324"/>
		<line class="st19" x1="-676.28" y1="-100" x2="-676.28" y2="1324"/>
		<line class="st19" x1="-733.28" y1="-100" x2="-733.28" y2="1324"/>
		<line class="st19" x1="-740.48" y1="-100" x2="-740.48" y2="1324"/>
		<line class="st19" x1="-797.48" y1="-100" x2="-797.48" y2="1324"/>
		<line class="st19" x1="-804.68" y1="-100" x2="-804.68" y2="1324"/>
		<line class="st19" x1="-861.68" y1="-100" x2="-861.68" y2="1324"/>
		<line class="st19" x1="-868.88" y1="-100" x2="-868.88" y2="1324"/>
		<line class="st19" x1="-925.88" y1="-100" x2="-925.88" y2="1324"/>
		<line class="st19" x1="-933.08" y1="-100" x2="-933.08" y2="1324"/>
		<line class="st19" x1="-990.08" y1="-100" x2="-990.08" y2="1324"/>
		<line class="st19" x1="-997.28" y1="-100" x2="-997.28" y2="1324"/>
		<line class="st19" x1="-1054.28" y1="-100" x2="-1054.28" y2="1324"/>
		<line class="st19" x1="-1061.48" y1="-100" x2="-1061.48" y2="1324"/>
		<line class="st19" x1="-1118.48" y1="-100" x2="-1118.48" y2="1324"/>
		<line class="st19" x1="-1125.68" y1="-100" x2="-1125.68" y2="1324"/>
		<line class="st19" x1="-1182.68" y1="-100" x2="-1182.68" y2="1324"/>
		<line class="st19" x1="-1189.88" y1="-100" x2="-1189.88" y2="1324"/>
		<line class="st19" x1="-1246.88" y1="-100" x2="-1246.88" y2="1324"/>
		<line class="st19" x1="-1361.28" y1="1209.6" x2="-369.28" y2="1209.6"/>
		<line class="st19" x1="-1361.28" y1="1150" x2="-369.28" y2="1150"/>
		<line class="st19" x1="-1361.28" y1="1142.8" x2="-369.28" y2="1142.8"/>
		<line class="st19" x1="-1361.28" y1="1083.2" x2="-369.28" y2="1083.2"/>
		<line class="st19" x1="-1361.28" y1="1076" x2="-369.28" y2="1076"/>
		<line class="st19" x1="-1361.28" y1="1016.4" x2="-369.28" y2="1016.4"/>
		<line class="st19" x1="-1361.28" y1="1009.2" x2="-369.28" y2="1009.2"/>
		<line class="st19" x1="-1361.28" y1="949.6" x2="-369.28" y2="949.6"/>
		<line class="st19" x1="-1361.28" y1="942.4" x2="-369.28" y2="942.4"/>
		<line class="st19" x1="-1361.28" y1="882.8" x2="-369.28" y2="882.8"/>
		<line class="st19" x1="-1361.28" y1="875.6" x2="-369.28" y2="875.6"/>
		<line class="st19" x1="-1361.28" y1="816" x2="-369.28" y2="816"/>
		<line class="st19" x1="-1361.28" y1="808.8" x2="-369.28" y2="808.8"/>
		<line class="st19" x1="-1361.28" y1="749.2" x2="-369.28" y2="749.2"/>
		<line class="st19" x1="-1361.28" y1="742" x2="-369.28" y2="742"/>
		<line class="st19" x1="-1361.28" y1="682.4" x2="-369.28" y2="682.4"/>
		<line class="st19" x1="-1361.28" y1="675.2" x2="-369.28" y2="675.2"/>
		<line class="st19" x1="-1361.28" y1="615.6" x2="-369.28" y2="615.6"/>
		<line class="st19" x1="-1361.28" y1="608.4" x2="-369.28" y2="608.4"/>
		<line class="st19" x1="-1361.28" y1="548.8" x2="-369.28" y2="548.8"/>
		<line class="st19" x1="-1361.28" y1="541.6" x2="-369.28" y2="541.6"/>
		<line class="st19" x1="-1361.28" y1="482" x2="-369.28" y2="482"/>
		<line class="st19" x1="-1361.28" y1="474.8" x2="-369.28" y2="474.8"/>
		<line class="st19" x1="-1361.28" y1="415.2" x2="-369.28" y2="415.2"/>
		<line class="st19" x1="-1361.28" y1="408" x2="-369.28" y2="408"/>
		<line class="st19" x1="-1361.28" y1="348.4" x2="-369.28" y2="348.4"/>
		<line class="st19" x1="-1361.28" y1="341.2" x2="-369.28" y2="341.2"/>
		<line class="st19" x1="-1361.28" y1="281.6" x2="-369.28" y2="281.6"/>
		<line class="st19" x1="-1361.28" y1="274.4" x2="-369.28" y2="274.4"/>
		<line class="st19" x1="-1361.28" y1="214.8" x2="-369.28" y2="214.8"/>
		<line class="st19" x1="-1361.28" y1="207.6" x2="-369.28" y2="207.6"/>
		<line class="st19" x1="-1361.28" y1="148" x2="-369.28" y2="148"/>
		<line class="st19" x1="-1361.28" y1="140.8" x2="-369.28" y2="140.8"/>
		<line class="st19" x1="-1361.28" y1="81.2" x2="-369.28" y2="81.2"/>
		<line class="st19" x1="-1361.28" y1="74" x2="-369.28" y2="74"/>
		<line class="st19" x1="-1361.28" y1="14.4" x2="-369.28" y2="14.4"/>
	</g>
</g>
</svg>
